<svg width="41" height="41" viewBox="0 0 41 41" fill="none" xmlns="http://www.w3.org/2000/svg">
<path d="M19.9988 0.222256C31.0465 0.0994934 40.097 8.95109 40.2198 19.9988C40.3425 31.0465 31.4909 40.097 20.4432 40.2198C9.39552 40.3425 0.344991 31.491 0.222228 20.4432C0.0994655 9.39554 8.95106 0.345019 19.9988 0.222256ZM10.9062 23.8731L20.2604 23.7692L20.324 29.4866C20.3335 30.3494 21.3867 30.7732 21.9847 30.1536L31.0989 20.7857C31.4737 20.4025 31.467 19.7976 31.0838 19.4229L21.7636 10.2597C21.144 9.65366 20.1085 10.1007 20.1181 10.9635L20.1816 16.6729L10.8273 16.7768C10.2951 16.7827 9.86446 17.223 9.87037 17.7552L9.92772 22.9162C9.93364 23.4484 10.3739 23.879 10.9062 23.8731Z" fill="white"/>
</svg>
